<svg xmlns="http://www.w3.org/2000/svg" width="426.031" height="104.031" viewBox="0 0 426.031 104.031">
  <defs>
    <style>
      .cls-1 {
        fill: #fff;
        fill-rule: evenodd;
      }
    </style>
  </defs>
  <path id="logo.svg" class="cls-1" d="M1002,135v1H843.628q-1.2,1.329-2.5,2.585a54.48,54.48,0,0,1-11.083,8.23,56.305,56.305,0,0,1-13.191,5.333,59.189,59.189,0,0,1-29.668,0A56.271,56.271,0,0,1,774,146.815a55.458,55.458,0,0,1-11.126-8.23,50.086,50.086,0,0,1-8.513-10.665,53.5,53.5,0,0,1-5.436-12.6,50,50,0,0,1-1.939-13.94,47.967,47.967,0,0,1,1.939-13.689,51.149,51.149,0,0,1,5.436-12.261A50.149,50.149,0,0,1,762.87,65.02,53.525,53.525,0,0,1,774,57a58.55,58.55,0,0,1,28.025-7.012,57.546,57.546,0,0,1,21.661,4.031,54.8,54.8,0,0,1,17.4,11,51.694,51.694,0,0,1,11.631,16.334,47.846,47.846,0,0,1,4.257,20.029,50.036,50.036,0,0,1-1.939,13.94,53.586,53.586,0,0,1-5.436,12.6,50.594,50.594,0,0,1-5.121,7.08H864V68.938h7.3v7.537q1.091-1.377,2.442-2.857a20.473,20.473,0,0,1,3.007-2.695,15.752,15.752,0,0,1,3.632-1.986,11.924,11.924,0,0,1,4.359-.77,12.72,12.72,0,0,1,5.932,1.378,13.845,13.845,0,0,1,4.541,3.749,17.614,17.614,0,0,1,2.906,5.531,21.735,21.735,0,0,1,1.029,6.768,27.363,27.363,0,0,1-1.251,8.449,20.167,20.167,0,0,1-3.592,6.707,16.356,16.356,0,0,1-5.671,4.417,17.236,17.236,0,0,1-7.486,1.581,23.255,23.255,0,0,1-2.845-.163,17.177,17.177,0,0,1-2.482-.486,13.964,13.964,0,0,1-2.281-.851,19.746,19.746,0,0,1-2.24-1.256V135H1002ZM835.019,82.613a44.446,44.446,0,0,0-6.828-14.7,31.058,31.058,0,0,0-26.17-13.059A32.861,32.861,0,0,0,786.639,58.3a31.456,31.456,0,0,0-11.084,9.616,43.652,43.652,0,0,0-6.7,14.7,73.933,73.933,0,0,0-2.234,18.77,76.78,76.78,0,0,0,2.234,19.063,45.9,45.9,0,0,0,6.7,15.116,30.79,30.79,0,0,0,26.466,13.521,31.111,31.111,0,0,0,15.087-3.569,32.366,32.366,0,0,0,11.083-9.952,46.727,46.727,0,0,0,6.828-15.116,74.227,74.227,0,0,0,2.317-19.063A71.48,71.48,0,0,0,835.019,82.613Zm37.013,16.474a7.873,7.873,0,0,0,2.038,2.553,9.9,9.9,0,0,0,3.108,1.722,11.962,11.962,0,0,0,3.975.628,7.588,7.588,0,0,0,3.874-1.054,9.906,9.906,0,0,0,3.148-2.958,15.6,15.6,0,0,0,2.119-4.6,21.108,21.108,0,0,0,.787-5.937,31.232,31.232,0,0,0-.726-7.152,16.937,16.937,0,0,0-2-5.086,8.641,8.641,0,0,0-3.027-3.019,7.7,7.7,0,0,0-3.854-.993,9.592,9.592,0,0,0-3.067.486A12.243,12.243,0,0,0,875.664,75a14.765,14.765,0,0,0-2.381,1.9,18.746,18.746,0,0,0-1.978,2.29V95.967A6.909,6.909,0,0,0,872.032,99.088Zm61.143-21.072a11.442,11.442,0,0,0-.686-4.052,7.284,7.284,0,0,0-2.24-3.1,11.079,11.079,0,0,0-4.056-1.986,22.82,22.82,0,0,0-6.135-.709,23.618,23.618,0,0,0-5.69.669,18.661,18.661,0,0,0-4.742,1.823,10.217,10.217,0,0,0-3.229,2.756,5.632,5.632,0,0,0-1.191,3.424,4.568,4.568,0,0,0,1.07,3.1,3.485,3.485,0,0,0,2.765,1.236,3.569,3.569,0,0,0,1.795-.405,2.975,2.975,0,0,0,1.11-1.094,4.793,4.793,0,0,0,.565-1.58,10.409,10.409,0,0,0,.162-1.864,8.581,8.581,0,0,1,.242-2.047,4.317,4.317,0,0,1,.908-1.783,4.708,4.708,0,0,1,1.836-1.277,7.976,7.976,0,0,1,3.027-.486,8.831,8.831,0,0,1,2.966.466,5.237,5.237,0,0,1,2.24,1.54,7.4,7.4,0,0,1,1.433,2.8,15.277,15.277,0,0,1,.5,4.235v2.31q-2.463.649-5.045,1.357t-5.045,1.641a37.293,37.293,0,0,0-4.621,2.107,18.594,18.594,0,0,0-3.794,2.695,11.906,11.906,0,0,0-2.583,3.424,9.511,9.511,0,0,0-.948,4.3,9.915,9.915,0,0,0,.666,3.647,8.391,8.391,0,0,0,4.843,4.883,10.417,10.417,0,0,0,3.935.71,14.034,14.034,0,0,0,4.116-.547,15.232,15.232,0,0,0,3.229-1.4,20.454,20.454,0,0,0,2.7-1.884q1.251-1.034,2.543-2.046v5.065h7.345V78.015ZM925.83,98.2q-1.091.811-2.139,1.56a17.789,17.789,0,0,1-2.1,1.3,11.854,11.854,0,0,1-2.159.871,8.361,8.361,0,0,1-2.361.324,4.85,4.85,0,0,1-2.24-.547,6.589,6.589,0,0,1-1.9-1.459,7.27,7.27,0,0,1-1.332-2.127,6.6,6.6,0,0,1-.5-2.553,5.689,5.689,0,0,1,1.412-3.667,15.6,15.6,0,0,1,3.592-3.141,31.837,31.837,0,0,1,4.763-2.533,48.161,48.161,0,0,1,4.964-1.844V98.2Zm38.623,7.537a15.266,15.266,0,0,0,4.843-2.917,18.516,18.516,0,0,0,3.712-4.64,25.672,25.672,0,0,0,2.5-6.22l-2.22-.892a31.3,31.3,0,0,1-1.756,3.85,13.53,13.53,0,0,1-2.381,3.2,10.521,10.521,0,0,1-3.269,2.188,11.184,11.184,0,0,1-4.459.811,10.243,10.243,0,0,1-5.287-1.4,13.2,13.2,0,0,1-4.076-3.769,17.9,17.9,0,0,1-2.6-5.552,24.333,24.333,0,0,1-.908-6.707,16.569,16.569,0,0,1,.727-4.964,12.3,12.3,0,0,1,2.1-4.052,10.161,10.161,0,0,1,3.35-2.735,9.687,9.687,0,0,1,4.48-1.013,8.469,8.469,0,0,1,3.047.466,4.771,4.771,0,0,1,1.9,1.276,4.432,4.432,0,0,1,.968,1.925A10.506,10.506,0,0,1,965.381,77a3.794,3.794,0,0,0,.3,1.459,4.413,4.413,0,0,0,.848,1.317,3.884,3.884,0,0,0,1.352.932,4.475,4.475,0,0,0,1.776.344,4.974,4.974,0,0,0,1.755-.324,5.945,5.945,0,0,0,1.574-.871,4.4,4.4,0,0,0,1.13-1.276A3.088,3.088,0,0,0,974.542,77a6.3,6.3,0,0,0-1.049-3.485,9.217,9.217,0,0,0-2.946-2.8,16.571,16.571,0,0,0-4.5-1.864,22.31,22.31,0,0,0-5.711-.689,17.654,17.654,0,0,0-7.446,1.6,19.36,19.36,0,0,0-6.074,4.336,20.338,20.338,0,0,0-4.076,6.443,20.891,20.891,0,0,0-1.494,7.882,18.746,18.746,0,0,0,1.352,7.132,18.511,18.511,0,0,0,3.713,5.815,17.58,17.58,0,0,0,5.509,3.931,16.121,16.121,0,0,0,6.781,1.439A16.561,16.561,0,0,0,964.453,105.733ZM984.672,50.3a4.118,4.118,0,0,0-1.332.79,4.035,4.035,0,0,0-.908,1.175,3.1,3.1,0,0,0-.343,1.439,3.02,3.02,0,0,0,.343,1.4,4.029,4.029,0,0,0,.908,1.175,4.4,4.4,0,0,0,1.332.81,4.337,4.337,0,0,0,1.614.3,4.5,4.5,0,0,0,1.635-.3,4.34,4.34,0,0,0,1.352-.81,4.063,4.063,0,0,0,.908-1.175,3.032,3.032,0,0,0,.343-1.4,3.116,3.116,0,0,0-.343-1.439,4,4,0,0,0-2.26-1.965,4.8,4.8,0,0,0-1.635-.284A4.622,4.622,0,0,0,984.672,50.3Zm-1.937,55.639H990V68.168H987.86l-5.125,2.107v35.661Zm33.985-5.957a6.776,6.776,0,0,1-1.74,1.5,4.291,4.291,0,0,1-2.26.608,3.936,3.936,0,0,1-3.99-3.971V72.058H1017v-3.12h-8.27V56.294h-2.1q-0.525,2.8-1.25,5.329a16.161,16.161,0,0,1-2,4.458,9.325,9.325,0,0,1-3.27,3.039,10.309,10.309,0,0,1-5.066,1.114v1.824h6.376V98.115a13.733,13.733,0,0,0,.42,3.526,7.5,7.5,0,0,0,1.32,2.715,5.918,5.918,0,0,0,2.26,1.762,7.66,7.66,0,0,0,3.22.629,11.4,11.4,0,0,0,6-1.48,10.937,10.937,0,0,0,3.89-4.032Zm44.41,10.345a13.615,13.615,0,0,0-8.16-2.57,19.454,19.454,0,0,0-7.45,1.419,17.246,17.246,0,0,0-6.01,4.1,19.479,19.479,0,0,0-4.02,6.5,23.8,23.8,0,0,0-1.47,8.61,24.158,24.158,0,0,0,1.43,8.572,18.426,18.426,0,0,0,3.96,6.386,17.308,17.308,0,0,0,6,4.008,19.831,19.831,0,0,0,7.52,1.4,12.113,12.113,0,0,0,4.64-.92,17.748,17.748,0,0,0,4.16-2.416,21.7,21.7,0,0,0,3.44-3.375,21.275,21.275,0,0,0,2.49-3.8l3.21,2.071a27.993,27.993,0,0,1-3.33,4.41,22.212,22.212,0,0,1-4.44,3.721,23.1,23.1,0,0,1-5.71,2.588,24.227,24.227,0,0,1-7.13.978,27.124,27.124,0,0,1-10.34-1.9,24.567,24.567,0,0,1-7.97-5.12,22.806,22.806,0,0,1-5.12-7.517c-0.14-.328-0.26-0.649-0.38-0.97l-2.22,4.912a22.353,22.353,0,0,1-2.77,4.7,18.119,18.119,0,0,1-3.27,3.3,12.355,12.355,0,0,1-3.55,1.946,10.982,10.982,0,0,1-3.57.628,7.8,7.8,0,0,1-2.28-.325,6.617,6.617,0,0,1-1.88-.891,4.45,4.45,0,0,1-1.27-1.358,3.329,3.329,0,0,1-.46-1.722,3.905,3.905,0,0,1,.3-1.5,3.7,3.7,0,0,1,.87-1.277,4.477,4.477,0,0,1,1.37-.891,4.579,4.579,0,0,1,1.82-.345,5.077,5.077,0,0,1,1.83.264,7.919,7.919,0,0,1,1.21.587,11.3,11.3,0,0,0,1.15.588,4.418,4.418,0,0,0,1.7.263,3.346,3.346,0,0,0,2.02-.648,7.149,7.149,0,0,0,1.59-1.641,14.345,14.345,0,0,0,1.27-2.168c0.38-.784.72-1.514,1.01-2.189l16.46-34.511-18.84-35.256h8.31l14.25,26.705,11.62-26.705h3.87L1040.02,106.5c0.05-.022.1-0.047,0.15-0.068a27.342,27.342,0,0,1,10.48-1.937,22.052,22.052,0,0,1,6.71.978,23.7,23.7,0,0,1,10.13,6.309,26.675,26.675,0,0,1,3.38,4.411l-3.33,2.224A22.446,22.446,0,0,0,1061.13,110.324Zm43.65,14.19a10.662,10.662,0,0,0-.66-3.835,6.9,6.9,0,0,0-2.14-2.934,10.727,10.727,0,0,0-3.89-1.879,22.149,22.149,0,0,0-5.88-.671,22.944,22.944,0,0,0-5.45.632,17.965,17.965,0,0,0-4.54,1.726,9.781,9.781,0,0,0-3.09,2.608,5.247,5.247,0,0,0-1.15,3.241,4.311,4.311,0,0,0,1.03,2.934,3.36,3.36,0,0,0,2.65,1.17,3.464,3.464,0,0,0,1.72-.384,2.846,2.846,0,0,0,1.06-1.035,4.38,4.38,0,0,0,.54-1.5,9.179,9.179,0,0,0,.16-1.764,7.794,7.794,0,0,1,.23-1.937,3.972,3.972,0,0,1,.87-1.688,4.463,4.463,0,0,1,1.76-1.208,7.718,7.718,0,0,1,2.9-.46,8.56,8.56,0,0,1,2.84.441,5.056,5.056,0,0,1,2.15,1.458,6.966,6.966,0,0,1,1.37,2.646,14.377,14.377,0,0,1,.48,4.008v2.186q-2.355.613-4.83,1.285t-4.83,1.553a35.675,35.675,0,0,0-4.43,1.994,18,18,0,0,0-3.64,2.551,11.4,11.4,0,0,0-2.47,3.241,8.852,8.852,0,0,0-.91,4.065,9.2,9.2,0,0,0,.64,3.452,7.99,7.99,0,0,0,1.8,2.78,8.2,8.2,0,0,0,2.84,1.841,10.106,10.106,0,0,0,3.77.672,13.559,13.559,0,0,0,3.94-.518,14.658,14.658,0,0,0,3.1-1.323,20.283,20.283,0,0,0,2.59-1.784q1.2-.978,2.43-1.937v4.795h7.04V124.514Zm-7.04,19.1c-0.69.512-1.38,1-2.05,1.477a16.933,16.933,0,0,1-2.01,1.227,11.453,11.453,0,0,1-2.07.825,8.093,8.093,0,0,1-2.26.306,4.658,4.658,0,0,1-2.14-.517,6.285,6.285,0,0,1-1.82-1.381,7.033,7.033,0,0,1-1.28-2.014,6.211,6.211,0,0,1-.48-2.416,5.357,5.357,0,0,1,1.35-3.471,14.882,14.882,0,0,1,3.44-2.972,31.063,31.063,0,0,1,4.57-2.4,46.567,46.567,0,0,1,4.75-1.745v13.078Zm27.73-27.691V107.6a9.481,9.481,0,0,1,.36-2.608,8.346,8.346,0,0,1,1.01-2.244,5.271,5.271,0,0,1,1.53-1.572,3.379,3.379,0,0,1,1.93-.6,3.793,3.793,0,0,1,2.13.5,3.573,3.573,0,0,1,1.14,1.227,6.707,6.707,0,0,1,.62,1.611,7.1,7.1,0,0,0,.58,1.611,3.412,3.412,0,0,0,1.02,1.227,3.254,3.254,0,0,0,1.97.5,3.939,3.939,0,0,0,2.52-.862,2.94,2.94,0,0,0,1.08-2.436,4.383,4.383,0,0,0-.66-2.339,6.059,6.059,0,0,0-1.89-1.88,10.158,10.158,0,0,0-3.08-1.266,17.1,17.1,0,0,0-4.15-.46,12.482,12.482,0,0,0-5.15,1.074,12.924,12.924,0,0,0-4.17,2.953,14.085,14.085,0,0,0-3.83,9.78v4.1h-7.42v2.953h7.42V150.94h7.04V118.876h9.43v-2.953h-9.43Zm36.23,34.748a19.254,19.254,0,0,0,8.85-6.942,17.078,17.078,0,0,0,2.44-5.062l-1.97-.883a9.931,9.931,0,0,1-1.71,3.184,13.49,13.49,0,0,1-2.92,2.742,15.279,15.279,0,0,1-3.82,1.937,13.363,13.363,0,0,1-4.39.729,10.322,10.322,0,0,1-5.03-1.247,12.4,12.4,0,0,1-3.94-3.433,16.092,16.092,0,0,1-2.57-5.2,22.4,22.4,0,0,1-.91-6.54h26.33a13.9,13.9,0,0,0-1.16-5.58,14.972,14.972,0,0,0-3.23-4.717,15.4,15.4,0,0,0-4.95-3.26,16.272,16.272,0,0,0-6.36-1.208,16.747,16.747,0,0,0-7.13,1.476,16.212,16.212,0,0,0-5.47,4.085,18.177,18.177,0,0,0-3.52,6.194,23.648,23.648,0,0,0-1.24,7.8,16.324,16.324,0,0,0,1.35,6.615,17.116,17.116,0,0,0,3.71,5.389,17.681,17.681,0,0,0,5.5,3.624,17.052,17.052,0,0,0,6.72,1.324A14.9,14.9,0,0,0,1161.7,150.671Zm-15.93-23.51a11.225,11.225,0,0,1,.9-3.7,11.517,11.517,0,0,1,1.88-2.973,8.272,8.272,0,0,1,2.57-1.975,6.842,6.842,0,0,1,3.04-.709,8.954,8.954,0,0,1,6.45,2.684,9.393,9.393,0,0,1,1.96,2.973,9.6,9.6,0,0,1,.71,3.7h-17.51Zm-243.746-4.492v-1.706a1.878,1.878,0,0,1,.076-0.534,1.717,1.717,0,0,1,.21-0.46,1.113,1.113,0,0,1,.319-0.322,0.726,0.726,0,0,1,.4-0.122,0.8,0.8,0,0,1,.444.1,0.736,0.736,0,0,1,.239.252,1.3,1.3,0,0,1,.129.33,1.5,1.5,0,0,0,.121.33,0.727,0.727,0,0,0,.214.251,0.682,0.682,0,0,0,.412.1,0.828,0.828,0,0,0,.525-0.177,0.6,0.6,0,0,0,.226-0.5,0.9,0.9,0,0,0-.137-0.48,1.249,1.249,0,0,0-.4-0.385,2.109,2.109,0,0,0-.642-0.259A3.639,3.639,0,0,0,903.3,119a2.646,2.646,0,0,0-1.074.22,2.727,2.727,0,0,0-.873.606,2.873,2.873,0,0,0-.8,2v0.841H899v0.605h1.551v6.572h1.47v-6.572h1.97v-0.605h-1.97Zm3.166,7.177h1.454v-4.968a5.335,5.335,0,0,1,.6-0.8,0.773,0.773,0,0,1,.9-0.263c0.081,0.034.161,0.071,0.242,0.11a2.419,2.419,0,0,0,.271.11,1.235,1.235,0,0,0,.391.051,0.985,0.985,0,0,0,.618-0.173,0.626,0.626,0,0,0,.222-0.527,0.664,0.664,0,0,0-.088-0.33,0.931,0.931,0,0,0-.243-0.275,1.287,1.287,0,0,0-.359-0.189,1.375,1.375,0,0,0-.448-0.07,1.453,1.453,0,0,0-.578.122,2.436,2.436,0,0,0-.553.33,4.085,4.085,0,0,0-.513.479,6.274,6.274,0,0,0-.464.578v-1.36H905.19v7.177Zm10.794-.157a3.9,3.9,0,0,0,1.236-.849,3.856,3.856,0,0,0,.812-1.254,4.061,4.061,0,0,0,.29-1.537,3.3,3.3,0,0,0-.29-1.379,3.456,3.456,0,0,0-.812-1.121,3.834,3.834,0,0,0-1.236-.754,4.279,4.279,0,0,0-1.555-.275,3.976,3.976,0,0,0-1.562.3,3.863,3.863,0,0,0-1.236.822,3.724,3.724,0,0,0-.812,1.214,3.825,3.825,0,0,0-.291,1.49,3.5,3.5,0,0,0,.291,1.419,3.6,3.6,0,0,0,.812,1.163,3.807,3.807,0,0,0,1.236.786,4.158,4.158,0,0,0,1.562.287A3.828,3.828,0,0,0,915.984,129.689Zm-2.35-.515a2.555,2.555,0,0,1-.8-0.806,3.969,3.969,0,0,1-.5-1.2,6.143,6.143,0,0,1-.17-1.474,3.277,3.277,0,0,1,.157-1.021,2.972,2.972,0,0,1,.425-0.842,2.11,2.11,0,0,1,.609-0.569,1.359,1.359,0,0,1,.715-0.209,2.37,2.37,0,0,1,1.216.291,2.265,2.265,0,0,1,.8.8,3.683,3.683,0,0,1,.445,1.191,7.462,7.462,0,0,1,.137,1.462,3.549,3.549,0,0,1-.146,1.026,2.857,2.857,0,0,1-.407.849,2.1,2.1,0,0,1-.622.581,1.517,1.517,0,0,1-.8.216A1.984,1.984,0,0,1,913.634,129.174Zm6.094,0.672h1.462v-5.33a2.489,2.489,0,0,1,.412-0.389,3.15,3.15,0,0,1,.529-0.326,3.337,3.337,0,0,1,.585-0.224,2.158,2.158,0,0,1,.574-0.083,1.154,1.154,0,0,1,.508.118,1.363,1.363,0,0,1,.425.323,1.611,1.611,0,0,1,.29.471,1.5,1.5,0,0,1,.109.574v4.866h1.462v-5.33a1.679,1.679,0,0,1,.372-0.4,2.963,2.963,0,0,1,.517-0.326,2.879,2.879,0,0,1,.6-0.22,2.554,2.554,0,0,1,.614-0.079,1.132,1.132,0,0,1,.5.118,1.366,1.366,0,0,1,.42.323,1.558,1.558,0,0,1,.392,1.045v4.866h1.47v-5.07a2.382,2.382,0,0,0-.6-1.588,2.093,2.093,0,0,0-.642-0.487,1.738,1.738,0,0,0-.78-0.181,3.1,3.1,0,0,0-.852.122,4.288,4.288,0,0,0-.823.326,3.673,3.673,0,0,0-.711.479,2.391,2.391,0,0,0-.505.59,1.458,1.458,0,0,0-.271-0.605,2.245,2.245,0,0,0-.488-0.48,2.328,2.328,0,0,0-.622-0.318,2.072,2.072,0,0,0-.662-0.114,2.309,2.309,0,0,0-.711.122,4.37,4.37,0,0,0-.755.326,5.609,5.609,0,0,0-1.361,1.045v-1.344h-1.462v7.177Zm17.389,0h1.607v-4.724l5.315,4.724h2.043l-6.065-5.393,4.781-3.914h-1.05l-5.024,4.119v-4.119h-1.607v9.307Zm15.289-5.416a2.169,2.169,0,0,0-.137-0.786,1.425,1.425,0,0,0-.448-0.6,2.256,2.256,0,0,0-.812-0.385,4.734,4.734,0,0,0-1.228-.137,4.9,4.9,0,0,0-1.139.129,3.858,3.858,0,0,0-.949.354,2.04,2.04,0,0,0-.646.535,1.069,1.069,0,0,0-.238.664,0.868,0.868,0,0,0,.214.6,0.707,0.707,0,0,0,.553.24,0.73,0.73,0,0,0,.36-0.079,0.588,0.588,0,0,0,.222-0.212,0.915,0.915,0,0,0,.113-0.306,2.023,2.023,0,0,0,.032-0.362,1.587,1.587,0,0,1,.049-0.4,0.836,0.836,0,0,1,.181-0.346,0.938,0.938,0,0,1,.368-0.247,1.638,1.638,0,0,1,.606-0.095,1.8,1.8,0,0,1,.593.091,1.056,1.056,0,0,1,.449.3,1.427,1.427,0,0,1,.286.543,2.843,2.843,0,0,1,.1.821V125.2q-0.492.126-1.009,0.264t-1.01.318a7.51,7.51,0,0,0-.925.409,3.737,3.737,0,0,0-.759.522,2.325,2.325,0,0,0-.517.665,1.8,1.8,0,0,0-.19.833,1.869,1.869,0,0,0,.134.707,1.669,1.669,0,0,0,.375.57,1.721,1.721,0,0,0,.594.377,2.138,2.138,0,0,0,.787.138,2.877,2.877,0,0,0,.824-0.106,3.118,3.118,0,0,0,.646-0.271,4.068,4.068,0,0,0,.541-0.366q0.25-.2.509-0.4v0.983h1.47V124.43Zm-1.47,3.914q-0.217.158-.428,0.3a3.59,3.59,0,0,1-.42.252,2.48,2.48,0,0,1-.432.169,1.725,1.725,0,0,1-.472.062,1,1,0,0,1-.449-0.106,1.305,1.305,0,0,1-.379-0.283,1.393,1.393,0,0,1-.267-0.412,1.257,1.257,0,0,1-.1-0.5,1.083,1.083,0,0,1,.283-0.711,3.061,3.061,0,0,1,.719-0.609,6.458,6.458,0,0,1,.953-0.491,9.717,9.717,0,0,1,.993-0.358v2.68Zm3.425,1.5h1.462v-5.33a2.489,2.489,0,0,1,.412-0.389,3.15,3.15,0,0,1,.529-0.326,3.337,3.337,0,0,1,.585-0.224,2.152,2.152,0,0,1,.574-0.083,1.154,1.154,0,0,1,.508.118,1.347,1.347,0,0,1,.424.323,1.593,1.593,0,0,1,.291.471,1.5,1.5,0,0,1,.109.574v4.866h1.462v-5.33a1.679,1.679,0,0,1,.372-0.4,2.963,2.963,0,0,1,.517-0.326,2.879,2.879,0,0,1,.6-0.22,2.554,2.554,0,0,1,.614-0.079,1.132,1.132,0,0,1,.5.118,1.366,1.366,0,0,1,.42.323,1.558,1.558,0,0,1,.392,1.045v4.866h1.47v-5.07a2.382,2.382,0,0,0-.6-1.588,2.093,2.093,0,0,0-.642-0.487,1.738,1.738,0,0,0-.78-0.181,3.1,3.1,0,0,0-.852.122,4.323,4.323,0,0,0-.824.326,3.7,3.7,0,0,0-.71.479,2.391,2.391,0,0,0-.5.59,1.458,1.458,0,0,0-.271-0.605,2.245,2.245,0,0,0-.488-0.48,2.328,2.328,0,0,0-.622-0.318,2.072,2.072,0,0,0-.662-0.114,2.309,2.309,0,0,0-.711.122,4.37,4.37,0,0,0-.755.326,5.609,5.609,0,0,0-1.361,1.045v-1.344h-1.462v7.177Zm18.358-5.416a2.169,2.169,0,0,0-.137-0.786,1.425,1.425,0,0,0-.448-0.6,2.256,2.256,0,0,0-.812-0.385,4.734,4.734,0,0,0-1.228-.137,4.9,4.9,0,0,0-1.139.129,3.858,3.858,0,0,0-.949.354,2.04,2.04,0,0,0-.646.535,1.069,1.069,0,0,0-.238.664,0.868,0.868,0,0,0,.214.6,0.707,0.707,0,0,0,.553.24,0.73,0.73,0,0,0,.36-0.079,0.588,0.588,0,0,0,.222-0.212,0.915,0.915,0,0,0,.113-0.306,2.023,2.023,0,0,0,.032-0.362,1.587,1.587,0,0,1,.049-0.4,0.836,0.836,0,0,1,.181-0.346,0.938,0.938,0,0,1,.368-0.247A1.638,1.638,0,0,1,969.82,123a1.8,1.8,0,0,1,.593.091,1.047,1.047,0,0,1,.448.3,1.415,1.415,0,0,1,.287.543,2.878,2.878,0,0,1,.1.821V125.2q-0.492.126-1.009,0.264t-1.01.318a7.51,7.51,0,0,0-.925.409,3.737,3.737,0,0,0-.759.522,2.325,2.325,0,0,0-.517.665,1.8,1.8,0,0,0-.19.833,1.869,1.869,0,0,0,.134.707,1.669,1.669,0,0,0,.375.57,1.721,1.721,0,0,0,.594.377,2.134,2.134,0,0,0,.787.138,2.881,2.881,0,0,0,.824-0.106,3.118,3.118,0,0,0,.646-0.271,4.068,4.068,0,0,0,.541-0.366q0.251-.2.509-0.4v0.983h1.47V124.43Zm-1.47,3.914q-0.217.158-.428,0.3a3.59,3.59,0,0,1-.42.252,2.48,2.48,0,0,1-.432.169,1.725,1.725,0,0,1-.472.062,1,1,0,0,1-.449-0.106,1.305,1.305,0,0,1-.379-0.283,1.393,1.393,0,0,1-.267-0.412,1.257,1.257,0,0,1-.1-0.5,1.083,1.083,0,0,1,.283-0.711,3.061,3.061,0,0,1,.719-0.609,6.408,6.408,0,0,1,.953-0.491,9.717,9.717,0,0,1,.993-0.358v2.68ZM976.136,119h-0.42l-1.042.4v10.447h1.462v-3.931l3.513,3.931h1.922l-4.079-4.567,3.3-2.61h-0.961l-3.7,2.893V119Zm5.783,3.671v5.109a2.081,2.081,0,0,0,.181.861,2.25,2.25,0,0,0,.5.708,2.384,2.384,0,0,0,.739.479,2.338,2.338,0,0,0,.909.177,2.18,2.18,0,0,0,.682-0.118,3.6,3.6,0,0,0,1.337-.8,3.017,3.017,0,0,0,.484-0.581v1.344h1.462v-7.177h-1.462v5.243a2.213,2.213,0,0,1-.347.448,2.886,2.886,0,0,1-.444.37,2.242,2.242,0,0,1-.485.247,1.392,1.392,0,0,1-.468.091,1.9,1.9,0,0,1-.634-0.1,1.665,1.665,0,0,1-.513-0.279,1.413,1.413,0,0,1-.347-0.408,1,1,0,0,1-.13-0.5v-5.109h-1.461Zm8,7.177h1.453v-4.968a5.335,5.335,0,0,1,.6-0.8,0.773,0.773,0,0,1,.9-0.263c0.08,0.034.161,0.071,0.242,0.11a2.419,2.419,0,0,0,.271.11,1.235,1.235,0,0,0,.391.051,0.985,0.985,0,0,0,.618-0.173,0.626,0.626,0,0,0,.222-0.527,0.655,0.655,0,0,0-.089-0.33,0.913,0.913,0,0,0-.242-0.275,1.287,1.287,0,0,0-.359-0.189,1.381,1.381,0,0,0-.449-0.07,1.452,1.452,0,0,0-.577.122,2.436,2.436,0,0,0-.553.33,4.085,4.085,0,0,0-.513.479,6.283,6.283,0,0,0-.465.578v-1.36h-1.453v7.177ZM1001,124.43a2.191,2.191,0,0,0-.13-0.786,1.473,1.473,0,0,0-.45-0.6,2.286,2.286,0,0,0-.813-0.385,4.74,4.74,0,0,0-1.228-.137,4.9,4.9,0,0,0-1.139.129,3.843,3.843,0,0,0-.949.354,2.04,2.04,0,0,0-.646.535,1.069,1.069,0,0,0-.238.664,0.868,0.868,0,0,0,.214.6,0.706,0.706,0,0,0,.553.24,0.726,0.726,0,0,0,.359-0.079,0.581,0.581,0,0,0,.222-0.212,0.916,0.916,0,0,0,.114-0.306,2.023,2.023,0,0,0,.032-0.362,1.635,1.635,0,0,1,.048-0.4,0.838,0.838,0,0,1,.182-0.346,0.931,0.931,0,0,1,.368-0.247A1.636,1.636,0,0,1,998.1,123a1.8,1.8,0,0,1,.594.091,1.053,1.053,0,0,1,.448.3,1.428,1.428,0,0,1,.287.543,2.878,2.878,0,0,1,.1.821V125.2q-0.493.126-1.01,0.264t-1.009.318a7.443,7.443,0,0,0-.925.409,3.737,3.737,0,0,0-.759.522,2.308,2.308,0,0,0-.517.665,1.79,1.79,0,0,0-.19.833,1.868,1.868,0,0,0,.133.707,1.671,1.671,0,0,0,.376.57,1.707,1.707,0,0,0,.593.377,2.143,2.143,0,0,0,.788.138,2.881,2.881,0,0,0,.824-0.106,3.118,3.118,0,0,0,.646-0.271,4.068,4.068,0,0,0,.541-0.366c0.167-.134.336-0.266,0.509-0.4v0.983H1001V124.43Zm-1.466,3.914c-0.146.105-.288,0.206-0.428,0.3a3.59,3.59,0,0,1-.42.252,2.48,2.48,0,0,1-.432.169,1.727,1.727,0,0,1-.473.062,0.994,0.994,0,0,1-.448-0.106,1.31,1.31,0,0,1-.38-0.283,1.41,1.41,0,0,1-.266-0.412,1.24,1.24,0,0,1-.1-0.5,1.083,1.083,0,0,1,.283-0.711,3.075,3.075,0,0,1,.718-0.609,6.508,6.508,0,0,1,.953-0.491,9.817,9.817,0,0,1,.994-0.358v2.68Z" transform="translate(-746.969 -50)"/>
</svg>
